<svg width="573" height="49" viewBox="0 0 573 49" fill="none" xmlns="http://www.w3.org/2000/svg">
<path d="M0.333008 6.5C0.333008 3.73858 2.57158 1.5 5.33301 1.5H567.333C570.094 1.5 572.333 3.73858 572.333 6.5V42.5C572.333 45.2614 570.094 47.5 567.333 47.5H5.33301C2.57158 47.5 0.333008 45.2614 0.333008 42.5V6.5Z" fill="#FFD4A2"/>
<path d="M17.0242 0.0152547C23.9023 -0.0238245 32.9184 0.0179605 39.7705 0.0753131C41.918 0.0931009 40.8306 0.172613 42.313 0.188472C45.2123 0.219387 47.9133 0.180391 50.7785 0.217219C51.728 0.229814 50.546 0.355761 51.5417 0.366084C56.9976 0.421745 62.1591 0.389665 67.686 0.416438C94.9098 0.548528 121.67 0.595807 149.227 0.653192C158.313 0.672006 169.359 0.786308 178.744 0.736322C179.84 0.730373 179.186 0.619823 179.395 0.610712C182.664 0.471225 181.577 0.694402 183.712 0.724054C192.184 0.841131 201.605 0.851313 209.759 0.808648C213.228 0.790173 209.75 0.570593 213.243 0.693841C213.485 0.702169 212.605 0.819565 213.556 0.832086C215.714 0.860247 219.807 0.839264 221.479 0.848565C224.701 0.867085 225.234 0.865904 228.282 0.867242C232.448 0.870092 237.404 0.928449 241.874 0.901849C242.829 0.895822 241.565 0.775478 243.087 0.754999C244.61 0.734553 248.64 0.744757 249.998 0.773126C251.357 0.801509 250.778 0.896098 251.019 0.917779C252.997 1.10077 257.658 0.847326 258.258 0.841058C269.192 0.73426 278.569 0.87864 288.833 0.878228C296.625 0.877609 304.956 0.829944 312.37 0.83648C321.203 0.844733 328.689 0.909946 337.27 0.898736C338.176 0.897691 337.115 0.756194 338.221 0.754632C349.972 0.738167 361.642 0.753591 373.342 0.849114C374.516 0.858819 373.003 0.983052 374.176 1.00018C381.353 1.10227 392.711 1.34754 396.973 0.806634C401.835 0.827755 407.738 0.849578 412.088 0.958611C414.892 1.02879 412.168 1.16413 415.613 1.10638C416.39 1.09351 415.38 0.974986 416.545 0.964654C421.451 0.921264 426.811 0.959791 431.664 0.898553C432.651 0.885818 432.382 0.779616 432.661 0.760492C435.012 0.605612 438.925 0.861638 439.778 0.880242C446.275 1.01897 451.018 0.964379 457.07 0.967766C458.474 0.968612 456.814 0.825959 458.166 0.821649C465.174 0.801203 472.434 0.813464 479.297 0.876763C480.823 0.891186 479.419 1.0127 480.149 1.02581C483.365 1.08214 484.078 0.852626 487.163 0.902215C487.813 0.912374 487.447 1.0164 487.565 1.02782C489.422 1.20717 491.035 0.953052 491.512 0.947442C497.553 0.870784 501.414 1.13607 507.249 1.0985C507.948 1.09374 506.373 0.962118 508.336 0.95678C521.409 0.920444 535.236 0.956602 548.177 1.06188C550.189 1.07807 548.753 1.17695 548.879 1.18914C550.943 1.37959 552.278 1.12441 552.934 1.1148C558.11 1.04562 562.944 1.25962 566.461 0.955681C566.752 0.95708 567.042 0.95843 567.333 0.959734C570.287 0.901857 572.925 3.5645 572.848 6.5C572.824 18.5285 572.854 30.5273 572.819 42.5C572.881 45.4254 570.236 48.0391 567.333 47.9523C563.031 47.9275 558.733 47.891 554.437 47.8372C554.161 47.8341 554.656 47.7084 554.105 47.7026C547.465 47.6321 548.74 47.8274 544.347 48.0663C543.24 48.1263 539.874 47.8379 539.576 47.8167C538.491 47.7388 539.616 47.5518 539.253 47.5368C536.246 47.4183 536.736 48.0366 532.679 48.0368C532.552 48.0358 533.085 47.922 532.744 47.9107C531.687 47.8751 530.638 47.9203 529.603 47.8812C527.234 47.7905 526.39 47.4901 522.771 47.6649C522.313 47.6876 523.013 48.0384 519.391 48.0218C517.947 48.0149 511.555 48.0209 509.764 47.9982C507.975 47.9755 509.203 47.8624 509.076 47.8576C504.255 47.7081 506.083 47.6461 503.668 47.4249C501.253 47.2044 501.922 47.7302 500.938 47.7889C499.952 47.8474 496.417 47.7241 495.549 47.6812C494.681 47.6383 495.763 47.5665 494.992 47.5422C489.873 47.3837 492.745 47.8032 491.058 47.8867C487.082 48.0843 483.986 47.6943 480.346 47.6561C479.361 47.6458 480.164 47.7346 479.287 47.7429C475.814 47.7746 473.725 47.653 469.773 47.7645C469.127 47.7827 465.932 48.0171 463.864 47.8451C463.571 47.8203 464.403 47.7231 462.923 47.7014C460.712 47.6687 456.727 47.6475 454.35 47.6799C452.595 47.704 454.606 47.8641 452.397 47.8143C451.415 47.7921 453.235 47.6985 451.391 47.6646C449.556 47.6307 444.865 47.6348 443.08 47.638C441.298 47.6413 442.273 47.7628 442.129 47.7709C441.258 47.8178 437.838 47.8764 437.536 47.8762C422.293 47.8911 408.237 47.6863 393.396 47.7541C392.232 47.7592 393.008 47.8873 392.83 47.8894C388.843 47.9431 391.986 47.6026 389.201 47.4886C389.604 47.7485 387.96 47.7014 385.151 47.7299C383.798 47.7439 384.535 47.8445 384.411 47.8548C382.404 48.0077 381.007 47.8102 380.647 47.7698C379.318 47.6213 377.871 47.7968 376.966 47.6975C376.062 47.599 378.143 47.4529 375.449 47.4547C374.694 47.5478 376.694 47.7909 374.649 47.8303C366.933 47.9793 352.53 47.7886 346.326 47.7687C340.134 47.7489 338.135 47.7661 334.527 47.7325C328.01 47.6717 330.398 47.8521 326.352 47.9346C322.293 48.0172 324.266 47.5734 323.683 47.478C323.11 47.3826 322.485 47.4808 321.772 47.4284C321.062 47.3759 322.599 47.3111 320.929 47.2914C319.259 47.2717 314.69 47.4414 314.098 47.5411C312.846 47.7525 314.905 47.9743 310.483 47.8964C310.229 47.8917 311.054 47.775 310.081 47.7633C302.348 47.6734 294.314 47.6678 286.59 47.5884C285.528 47.5773 286.478 47.4475 285.86 47.4395C279.422 47.3565 281.723 47.5754 278.195 47.8186C278.987 47.4949 277.036 47.297 272.15 47.2951C269.213 47.2938 269.719 47.4351 267.819 47.5347C267.249 47.5648 265.171 47.4677 264.794 47.5342C263.552 47.7515 265.51 47.9947 260.472 47.8978C260.252 47.8932 260.955 47.7743 260.192 47.7671C255.255 47.72 254.665 47.9472 249.329 47.9747C245.146 47.9963 237.708 47.8577 232.946 47.8352C233.046 47.4714 228.548 47.5547 226.723 47.8055C223.632 47.7953 220.294 47.8095 217.307 47.7748C216.279 47.763 216.954 47.6576 216.825 47.6462C214.837 47.4677 213.493 47.7118 212.826 47.7213C205.596 47.8143 199.705 47.6294 192.805 47.8101C192.56 47.8166 192.163 48.0694 190.319 47.8848C190.199 47.8721 192.478 47.7571 189.232 47.7482C185.986 47.7393 179.866 47.6038 175.359 47.721C174.268 47.7491 171.509 47.9543 169.295 47.794C169 47.7722 169.323 47.6998 168.897 47.6594C167.521 47.5309 166.769 47.7864 165.152 47.5693C163.534 47.3523 160.168 47.1898 155.623 47.3395C155.478 47.3439 154.402 47.5464 152.973 47.5432C150.691 47.5379 147.452 47.4957 145.069 47.497C143.929 47.4977 144.659 47.6234 144.461 47.6257C136.79 47.6962 131.331 47.5841 123.114 47.5355C121.608 47.5263 117.279 47.6977 114.363 47.5622C111.161 47.4138 114.452 46.7966 107.092 46.9437C104.123 47.0025 100.365 47.7855 95.0304 47.3798C84.6842 47.4804 75.116 47.2727 64.741 47.4163C64.2744 47.4226 62.7991 47.6412 61.7023 47.6382C60.0738 47.6334 59.18 47.5312 58.0173 47.5245C53.1452 47.4937 48.6868 47.5811 43.9894 47.5675C42.2059 47.5626 42.8296 47.457 40.7024 47.4511C38.5766 47.4453 37.1593 47.5843 34.2784 47.5172C32.1029 47.466 29.9274 47.1817 27.0397 47.1486C26.9295 47.429 24.9463 47.4232 21.421 47.4972C20.7433 47.5116 21.47 47.6092 21.1494 47.621C19.8449 47.6713 18.6377 47.5904 17.3989 47.6451C17.0978 47.6583 17.0833 47.7541 16.8371 47.7702C14.7423 47.9112 11.2914 47.6958 10.6987 47.6583C8.42713 47.5159 7.36551 47.6404 5.6231 47.5844C5.50848 47.5807 5.41249 47.5769 5.33301 47.5731C4.20589 47.4633 6.33482 47.5476 4.46989 47.3488C2.40179 47.0162 0.406608 44.9235 0.463382 42.5C0.468721 40.1016 0.466006 37.6971 0.468191 35.5723C0.469356 33.8655 0.341538 35.03 0.338736 34.7857C0.306318 31.2563 0.44228 27.6872 0.187675 25.7302C0.845989 23.2832 0.123822 23.6019 0.255607 18.5571C0.266266 18.1597 0.577578 17.6541 0.623281 19.1798C0.668942 20.7054 0.57163 23.0189 0.642874 25.1356C0.659593 25.6369 0.951312 28.5083 0.968983 28.9001C1.10709 31.969 0.641875 32.4039 0.616323 32.5663C0.340577 34.4075 0.654849 37.9165 0.676565 38.8405C0.706509 40.1126 0.721517 41.3272 0.729802 42.5C0.716792 45.0546 2.91919 47.0786 5.18737 47.0491C5.23678 47.0495 5.28533 47.049 5.33301 47.0477C7.4975 46.9913 7.75496 46.7009 9.52807 46.71C15.5645 46.7409 17.6713 47.166 23.3595 46.7974C24.579 46.7188 23.367 46.3857 27.7373 46.6476C28.0119 46.6641 31.2566 46.9037 33.1312 46.7521C33.3667 46.733 33.3592 46.636 33.6697 46.6278C35.7508 46.5751 37.1385 46.6524 39.4055 46.6154C41.672 46.5783 44.398 46.5231 46.986 46.556C48.5457 46.5757 50.547 46.7566 51.2936 46.8009C53.4019 46.9284 55.6624 46.7193 56.9685 46.8737C58.2856 47.029 55.7107 47.2647 59.1645 47.365C59.2924 47.1128 59.5862 46.854 59.7919 46.6004C67.3609 46.6092 74.8082 46.6908 82.4024 46.6796C83.3439 46.678 82.381 46.5424 83.3903 46.5372C87.6488 46.5156 91.3681 46.6123 95.7842 46.5738C99.2026 46.5435 102.951 46.3999 106.525 46.3638C108.709 46.6524 114.013 46.5544 117.866 46.5808C119.215 46.5899 119.125 46.6669 120.085 46.6921C123.706 46.7851 122.009 46.5301 123.002 46.4899C127.261 46.3187 127.626 46.8959 132.647 46.8816C132.913 46.881 136.165 46.5734 136.613 46.5542C139.459 46.4293 137.084 46.6613 138.865 46.684C142.117 46.7256 144.377 46.7991 148.192 46.7089C149.305 46.6822 151.974 46.4905 154.134 46.6388C154.418 46.6582 154.261 46.7599 154.49 46.7659C158.631 46.8652 158.74 46.5456 161.106 46.4374C163.473 46.3292 167.128 46.5498 167.872 46.6134C169.818 46.7778 166.381 46.6836 166.275 46.6998C165.037 46.8918 167.703 46.8588 169.74 46.875C170.035 47.1883 172.884 47.1695 171.852 46.8906C171.734 46.8601 170.149 46.8893 169.74 46.875C171.528 46.5676 174.659 46.5282 178.117 46.8155C179.735 46.9501 178.205 47.1071 183.122 47.0497C185.353 47.0238 184.491 46.808 186.46 46.7492C190.959 46.615 196.805 46.8163 201.444 46.7846C203.127 46.773 201.487 46.655 202.638 46.643C205.691 46.611 208.383 46.6996 211.449 46.6542C211.727 46.6499 211.049 46.5263 212.002 46.5247C219.23 46.5104 225.525 46.5896 233.072 46.5917C236.719 46.5928 243.238 46.5246 247.016 46.5383C253.563 46.5613 261.617 46.7411 267.21 46.6974C270.858 46.6694 270.058 46.5458 271.621 46.4616C274.637 46.2983 279.976 46.5908 280.695 46.6361C280.717 46.6376 277.578 46.6667 279.253 46.7302C280.227 46.8624 280.66 46.6366 280.695 46.6361C281.167 46.6653 287.438 46.6934 288.683 46.6698C289.359 46.6568 288.981 46.5397 289.334 46.5352C297.719 46.4303 306.118 46.4006 314.622 46.4553C314.772 46.4577 314.547 46.5887 314.899 46.5927C319.822 46.6509 322.975 46.4906 327.035 46.3955C331.095 46.3003 334.315 46.3322 336.718 46.5571C339.781 46.5288 344.176 46.6283 346.705 46.6886C349.234 46.749 349.587 46.4939 349.81 46.4888C356.75 46.3274 360.762 46.4734 367.963 46.4962C371.386 46.5074 378.176 46.4704 381.883 46.4425C384.812 46.42 386.577 46.4798 389.276 46.4416C389.641 46.4365 389.272 46.3229 389.384 46.3186C392.396 46.1827 390.948 46.4603 391.57 46.5099C393.825 46.6902 395.218 46.7863 399.076 46.7014C399.966 46.682 402.558 46.2822 404.18 46.2589C406.288 46.2292 405.493 46.3725 407.701 46.3378C407.89 46.3349 407.85 46.2465 409.213 46.2504C415.539 46.2674 422.436 46.3188 429.009 46.3099C429.907 46.3091 428.756 46.1689 430.054 46.1653C436.142 46.1487 442.814 46.1539 448.745 46.2195C450.205 46.2361 449.29 46.3343 449.607 46.3634C451.552 46.5398 454.311 46.2835 454.766 46.2786C465.626 46.1555 473.936 46.3874 485.004 46.277C485.607 46.2705 490.244 45.9958 492.313 46.2314C492.455 46.2471 494.502 46.4881 496.312 46.3233C496.424 46.313 495.149 46.1889 497.375 46.2015C499.601 46.2142 503.183 46.1313 506.243 46.2677C507.212 46.3106 509.501 46.5511 512.391 46.3594C512.579 46.346 517.04 45.9126 518.632 46.2116C518.89 46.2608 518.62 46.5773 522.069 46.4151C522.728 46.3836 521.532 46.313 523.268 46.2689C525.927 46.201 529.451 46.2858 532.721 46.1448C533.291 46.1198 535.718 45.905 537.665 46.0681C537.97 46.0936 537.391 46.1992 538.419 46.2111C543.309 46.2678 548.429 46.1971 553.393 46.2702C555.151 46.2959 554.252 46.4667 556.085 46.5125C557.919 46.5582 561.612 46.6022 563.53 46.5242C565.449 46.4461 563.353 46.1739 566.227 46.1521C566.596 46.1493 566.964 46.1468 567.333 46.1444C569.276 46.1739 571.002 44.4237 570.956 42.5C570.959 33.0305 571.056 23.5989 571.074 14.11C571.077 12.2595 570.98 13.7936 570.978 11.0666C570.977 9.67092 570.974 8.13452 570.971 6.5C571.034 4.70515 569.375 2.82786 567.333 2.87712C558.705 2.88993 549.317 2.88206 543.616 2.74681C536.626 2.58104 545.423 2.45484 540.081 2.38738C537.504 2.3552 534.715 2.67166 534.093 2.68163C528.014 2.78283 523.789 2.64265 518.318 2.68566C517.188 2.69458 518.297 2.82285 517.335 2.82903C514.051 2.85127 510.599 2.79402 507.46 2.80449C506.052 2.80948 506.312 2.90745 505.016 2.89989C501.916 2.88293 499.175 2.84175 496.153 2.74993C495.877 2.74156 497.734 2.61969 495.441 2.61516C491.729 2.60817 487.121 2.51759 482.85 2.61113C481.583 2.63927 481.533 2.86317 478.81 2.70854C478.238 2.67625 478.967 2.4074 475.794 2.6397C475.261 2.6783 469.93 2.99163 467.315 2.78966C466.625 2.7365 464.863 2.5165 463.339 2.55107C463.133 2.55659 463.961 2.67686 462.698 2.68859C458.248 2.72784 453.584 2.715 449.012 2.75267C447.791 2.76297 449.609 2.88742 447.79 2.89879C442.786 2.93025 436.539 2.89856 431.645 2.85961C429.841 2.84501 431.088 2.74192 430.957 2.7307C428.846 2.54823 427.598 2.79452 426.898 2.80889C422.54 2.89488 419.222 2.77918 415.206 2.8098C414.098 2.81794 414.884 2.93538 414.663 2.94585C412.375 3.04816 414.079 2.83726 412.631 2.81401C408.573 2.74819 404.05 2.75762 399.947 2.77263C398.44 2.77832 400.133 2.91449 398.781 2.91802C390.775 2.94148 382.452 2.92845 374.639 2.85338C373.168 2.839 374.094 2.73414 373.787 2.71019C371.674 2.54264 368.577 2.77118 367.864 2.79296C364.624 2.89236 363.365 2.79964 360.504 2.81694C346.525 2.90311 329.264 2.8417 316.069 2.80376C298.874 2.75493 285.532 2.65518 269.134 2.68108C268.092 2.68259 269.143 2.82209 268.245 2.82518C256.646 2.85881 245.228 2.8043 233.606 2.84459C232.652 2.84765 234.027 2.97989 232.496 2.98924C229.356 3.00936 225.379 3.00217 222.204 2.95995C220.656 2.9396 222.733 2.82613 221.174 2.80797C217.545 2.76543 213.655 2.75601 209.928 2.77721C208.341 2.78652 210.735 2.92177 208.673 2.92333C194.628 2.93674 180.834 2.96004 166.64 2.7849C165.667 2.77287 164.814 2.498 162.745 2.55071C162.589 2.62699 162.597 2.71673 162.529 2.79827C142.083 2.84219 121.846 2.7469 101.342 2.73216C100.477 2.73158 101.971 2.87722 100.298 2.87682C90.611 2.87466 81.2045 2.91501 71.296 2.77025C70.3129 2.75609 70.8173 2.49987 67.9201 2.53862C67.4091 2.54569 63.0456 2.57987 61.9175 2.63549C61.7643 2.64388 62.5603 2.76347 61.1543 2.76696C52.9832 2.78512 44.4204 2.75781 36.2635 2.68474C34.9471 2.67272 36.349 2.54536 35.4114 2.53569C28.7602 2.46809 21.5256 2.5649 15.1701 2.44927C10.9159 2.37141 12.4909 2.15126 10.2303 1.93456C9.91056 1.90399 7.27625 1.89914 7.14003 1.77306C6.79029 1.45602 8.06626 1.10886 7.5427 0.770929C7.43208 0.69814 3.90407 0.776538 5.99288 0.600641C6.1388 0.588869 8.69663 0.53049 9.32663 0.47082C9.76525 0.429565 8.97484 0.301341 9.86977 0.24853C10.7646 0.195769 11.748 0.303253 13.2316 0.241206C14.7146 0.178391 14.0625 0.032522 17.0242 0.0152547ZM358.092 46.9583C360.434 47.0808 360.78 46.6322 358.247 46.7395C358.124 46.7452 357.972 46.9523 358.092 46.9583ZM74.7657 47.0292C77.827 47.2271 79.922 46.9361 77.7623 46.7833C75.6029 46.6306 73.8329 46.9692 74.7657 47.0292ZM43.0202 47.1737C46.598 47.3297 47.1613 46.6935 43.3292 46.8221C43.1063 46.8294 42.8109 47.1646 43.0202 47.1737ZM20.7138 1.87285C20.6815 1.8669 18.7879 1.86109 18.7426 1.86699C17.7343 2.00948 21.5208 2.02099 20.7138 1.87285ZM11.5181 47.3309C12.635 47.417 15.851 47.3177 14.4632 47.2106C13.346 47.1246 10.1269 47.2239 11.5181 47.3309ZM480.247 47.4371C480.284 47.4438 481.642 47.4498 481.614 47.4121C481.522 47.2903 479.633 47.3247 480.247 47.4371ZM1.6335 3.38174C0.838035 4.31323 0.468642 5.46591 0.449497 6.5C0.31819 12.0963 -0.0452831 14.3323 0.00456992 7.09026C0.0152991 5.53027 0.172156 10.4524 0.219535 8.46684C0.236032 7.7725 0.237323 7.12273 0.229854 6.5C0.197248 3.87958 2.06662 1.30617 5.26226 1.32017C5.61691 1.35047 4.58664 1.34294 3.58096 1.81972C2.55032 2.26191 1.75291 3.21687 1.62531 3.39262C1.62803 3.38899 1.63077 3.38536 1.6335 3.38174ZM359.441 47.4972C359.488 47.5031 361.367 47.5088 361.412 47.5029C362.43 47.3604 358.644 47.349 359.441 47.4972ZM559.466 47.7145C559.57 47.7272 563.931 47.739 564.073 47.7274C566.348 47.4944 557.531 47.4699 559.466 47.7145ZM232.871 47.8255C230.82 47.9688 228.367 47.9857 226.732 47.8057C228.77 47.8153 230.822 47.8167 232.871 47.8255Z" fill="#F6A94F"/>
</svg>
