<svg width="446" height="36" viewBox="0 0 446 36" fill="none" xmlns="http://www.w3.org/2000/svg">
<path d="M431.333 17.7171C431.917 17.7917 432.7 18.0682 433.39 18.2211C436.244 18.9216 437.281 19.1736 439.903 20.6316C440.196 20.8139 440.57 21.065 440.937 21.3826C442.872 22.9277 445.236 26.3511 445.717 29.6295C446.324 32.8656 445.446 35.5525 445.032 35.4349C445.032 35.4349 445.032 35.4349 445.032 35.4349C445.023 35.4327 445.015 35.4293 445.007 35.4248C444.868 35.333 444.868 34.2987 444.677 34.1367C444.489 33.9756 443.286 33.9177 443.241 32.7155C443.367 30.9173 442.202 26.7124 441.477 25.9832C441.107 25.4367 440.522 24.8679 439.922 24.2881C439.639 24.0142 439.365 23.7699 439.094 23.5455C437.695 22.5067 436.223 22.0561 434.089 21.7634C433.144 21.3596 432.165 20.9935 431.161 20.6511C429.814 20.4836 427.789 19.9974 426.959 19.9161C426.277 19.8465 425.867 19.9318 425.157 19.8662C424.362 19.7939 423.152 19.5428 421.696 19.4586C419.31 19.3263 418.867 19.6494 417.436 19.6214C415.952 19.595 413.647 19.3348 411.75 19.4226C411.513 19.4555 411.276 19.4889 411.035 19.5225C411.205 19.6087 411.377 19.695 411.543 19.7815C410.584 19.8055 410.184 19.6299 409.303 19.6212C408.272 19.6122 407.753 19.7765 407.053 19.7792C406.495 19.7815 405.723 19.6583 404.978 19.6793C403.923 19.71 404.134 19.8955 403.575 19.9443C403.561 19.9455 403.531 19.9476 403.487 19.9503L403.531 19.9485C402.911 20.0045 399.08 20.2968 398.877 20.3085C397.062 20.4105 396.883 20.1615 395.394 20.2159C391.359 20.3624 387.132 20.7839 383.4 21.0454C381.716 21.1632 379.952 21.2335 378.284 21.2717C380.893 20.4867 375.016 20.2522 377.257 21.1795C375.356 21.1225 374.084 21.4609 372.302 21.4958C371.152 21.5178 370.344 21.4115 368.723 21.4882C365.82 21.6266 362.671 22.1696 361.803 21.4702C358.389 21.7459 355.451 21.5974 354.238 22.2958C353.366 22.3706 351.103 22.0723 350.113 22.0574C349.175 22.0466 342.027 22.133 340.858 22.1604C339.689 22.1911 337.641 22.2486 336.658 22.3372C335.423 22.4474 334.578 23.1486 332.353 22.4283C329.79 22.5686 328.877 22.572 326.496 22.545C326.063 22.5401 326.011 22.4245 325.758 22.4311C325.238 22.4448 324.356 22.5542 323.43 22.5879C321.908 22.6431 321.038 22.4169 321.215 22.7887C320.208 22.8754 319.201 22.9611 318.198 23.0457C317.844 22.9808 317.491 22.9158 317.138 22.8506C316.603 22.9408 316.073 23.0305 315.536 23.1201C316.157 22.565 312.369 22.9567 313.606 23.2457C311.655 23.1687 309.712 23.0872 307.754 23.0011C308.014 22.3816 303.488 22.9808 303.863 23.3111C303.639 23.3128 303.415 23.3145 303.191 23.3161C301.234 23.1695 299.454 23.3164 297.062 23.2131C294.69 23.108 294.926 23.0455 294.19 22.7615C293.624 22.7774 293.06 22.7927 292.5 22.8073C289.584 23.5727 290.057 22.2374 285.067 22.7744C283.429 22.2645 279.477 22.4472 276.858 22.5123C276.557 22.5204 276.55 22.6153 276.148 22.6319C275.112 22.6718 272.592 22.4513 272.672 22.7598C271.838 22.6366 270.895 22.5053 270.03 22.3734C269.304 22.3932 268.606 22.4118 267.888 22.4264C267.886 22.5221 267.884 22.6179 267.882 22.7137C266.38 22.303 264.207 22.2794 263.022 22.1043C262.798 22.0703 262.756 21.9355 262.071 21.8414C261.303 21.7348 259.728 21.6262 258.784 21.4806C258.397 21.5859 258.02 21.6906 257.637 21.7929C255.8 21.652 255.367 21.1939 254.302 21.0019C254.198 20.9834 253.137 20.8235 252.252 20.6612C251.454 20.5158 250.764 20.4072 250.669 20.3949C249.215 20.2329 249.596 20.5704 245.43 19.9812C244.687 19.8799 244.087 19.6973 243.414 19.6149C242.222 19.4946 238.497 19.2151 238.126 19.3289C236.655 18.8779 232.549 17.2338 231.682 16.2018C231.403 15.9394 231.428 15.7551 230.619 14.9329C229.949 14.2918 228.318 12.5304 227.73 11.5591C227.084 10.5425 227.001 10.069 226.741 9.61243C226.489 9.16206 226.15 8.82853 225.821 8.21924C224.837 6.38388 224.231 4.62028 223.57 3.09486C223.547 3.04221 223.524 2.99208 223.502 2.94442C223.394 2.70787 223.26 2.46194 223.147 2.32018C223.095 2.25141 223.034 2.20459 223.055 2.2336C223.053 2.25948 223.313 2.37598 223.486 2.32568C223.647 2.28601 223.631 2.27158 223.605 2.32003C223.574 2.36492 223.523 2.44227 223.469 2.5359C223.364 2.71918 223.254 2.9442 223.149 3.17559C222.726 4.11675 222.35 5.11672 221.903 6.04642C221.623 6.47726 221.296 6.86524 221.009 7.3254C220.114 8.75892 219.116 10.1777 217.996 11.562C216.373 13.5457 214.586 15.696 212.105 17.1672C209.628 18.6459 206.841 19.1183 204.357 19.3237C203.972 19.3551 203.513 19.3792 203.003 19.3934C199.537 19.3917 194.082 19.0337 195.812 19.8023C194.625 19.9574 187.18 19.5832 185.65 19.5685C184.067 19.5556 183.105 19.7055 181.928 19.7014C178.348 19.6883 176.08 19.5627 171.853 19.6704C170.791 19.6989 169.626 19.8748 168.976 19.8684C168.209 19.8603 167.298 19.6766 166.35 19.6589C164.049 19.6179 159.487 19.6448 157.268 19.5986C156.852 19.5897 156.707 19.4327 156.108 19.3798C153.749 19.1729 151.169 19.1713 151.624 19.6725C148.688 19.3692 145.842 19.6072 143.133 19.6042C137.242 19.5953 126.683 19.4083 121.565 19.5859C118.365 19.6979 118.444 19.9215 113.72 19.7007C112.673 19.6518 111.63 19.5881 110.36 19.5299C107.384 19.393 104.647 18.9658 102.374 19.4512C99.0758 19.3054 96.4259 19.3843 93.9747 18.9483C93.6851 19.049 93.3959 19.1497 93.1068 19.2504C92.7024 19.2512 92.2983 19.2519 91.8949 19.2528C91.7694 19.155 91.644 19.0572 91.5187 18.9594C88.6091 18.9209 84.9068 19.307 82.4715 19.2964C78.2739 19.2765 67.8003 19.101 63.7891 18.9721C61.7197 18.9025 61.6522 19.111 60.4435 18.6836C59.9679 18.7137 59.4949 18.7439 59.0248 18.7742C58.7306 18.8683 58.4376 18.9624 58.1456 19.0565C55.5077 19.0636 52.305 18.926 49.7917 18.938C45.1192 18.9587 38.3258 19.264 33.5885 19.1703C32.5378 19.1435 30.9111 18.9792 29.8165 19.0054C28.284 19.0431 27.6967 19.3754 25.6931 19.4465C24.3938 19.498 22.3715 19.5084 20.7061 19.6129C17.6694 19.8124 14.4566 20.5288 12.6049 21.3331C11.7088 21.7123 11.3597 22.0189 10.7763 22.3335C8.36555 23.675 6.56018 25.1418 5.18238 27.2989C3.40718 29.3874 3.30335 29.1328 2.55667 29.7901C1.97858 30.2721 0.82508 32.3151 0.603967 32.7037C0.398668 32.9458 0.233881 31.9906 0.000358939 32.3254C0.492808 28.1337 1.81632 26.7126 4.00695 24.4657C7.93553 20.0416 13.6761 17.9803 19.1945 17.1975C19.6096 17.2301 20.0296 17.2684 20.4548 17.3126C20.5348 17.3256 20.6178 17.3388 20.7037 17.3522C20.7038 17.3524 20.7038 17.3527 20.7038 17.3529C22.9607 17.2941 23.5571 17.0129 24.9053 16.8881C35.5869 15.876 57.0182 16.3742 68.9414 16.4533C71.4724 16.4695 79.841 16.3385 81.6206 16.5267C82.0811 16.5753 82.2089 16.748 82.7004 16.7571C86.9874 16.6684 91.3724 16.5836 95.6904 16.5009C104.604 16.8095 113.835 16.6415 122.806 16.6571C147.136 16.6905 171.185 16.7856 195.114 16.8954C197.282 16.896 200.543 16.8857 202.848 16.7835C205.25 16.6257 207.539 16.2593 209.31 15.5445C210.829 14.8874 211.616 14.7574 213.161 13.0202C213.231 13.0561 213.3 13.0921 213.37 13.128C214.392 12.0108 215.031 11.0544 215.897 9.8833C216.203 9.46756 216.522 9.02876 216.881 8.53252C218.244 6.92378 220.237 2.62456 222.015 0.526165C222.324 0.223676 222.968 -0.0608597 223.459 0.0113C223.957 0.0725118 224.158 0.244275 224.313 0.358145C224.611 0.610127 224.792 0.848008 225.094 1.34054C225.258 1.61739 225.396 1.88736 225.552 2.21395C226.259 3.71007 227.45 5.88425 228.269 7.35173C229.111 8.94969 230.671 11.5537 231.609 12.483C234.785 16.3106 240.257 16.479 245.78 17.1692C247.304 17.3639 249.236 17.8212 249.725 17.8957C250.646 18.0283 250.977 17.9081 251.596 17.9929C251.947 18.0418 252.324 18.1018 252.726 18.1729C255.72 18.7104 259.828 19.31 262.563 19.5404C272.595 20.3825 283.381 20.4637 293.44 20.5238C299.819 20.5674 310.412 20.4055 316.304 20.4089C317.569 20.4115 317.236 20.6106 318.301 20.5879C319.483 20.5622 320.124 20.4174 320.678 20.3941C324.49 20.2376 332.939 19.8663 336.549 19.8775C337.238 19.8807 337.742 20.0148 338.153 20.0006C338.362 19.9937 338.829 19.8754 339.483 19.8428C345.252 19.5537 349.475 19.4548 355.13 19.2631C365.977 18.8942 378.52 18.1195 389.901 17.6466C392.411 17.5423 394.108 17.7531 394.448 17.7326C395.196 17.6881 395.715 17.4608 397.257 17.3313C399.08 17.1775 401.279 17.0529 403.373 16.9495L403.406 16.9481C407.219 16.8596 411.195 16.9616 414.34 16.9916C416.779 17.0096 420.149 16.9226 422.563 17.0583C424.491 17.1357 429.024 17.7565 429.897 17.8033C430.417 17.8136 430.708 17.6393 431.333 17.7171ZM366.975 21.3989C367.3 21.0381 363.735 21.4829 365.081 21.6099C365.385 21.6386 366.892 21.4927 366.975 21.3989ZM215.123 14.0037C215.218 14.0478 215.312 14.0916 215.408 14.135C215.715 13.7512 216.006 13.3655 216.29 12.9746C216.069 13.1389 215.846 13.3019 215.619 13.4628C215.456 13.6452 215.291 13.825 215.123 14.0037Z" fill="#623319"/>
</svg>
